# xmcd
#
# Track frame offsets:
#	150
#	15645
#	31981
#	56046
#	76967
#	96066
#	115458
#	126938
#	141646
#	161034
#	179381
#	204152
#	224434
#	242196
#	257867
#	274713
#	299325
#	315821
#	332435
#
# Disc length: 4602 seconds
#
# Revision: 0
# Processed by: cddbd v1.5.2PL0 Copyright (c) Steve Scherf et al.
# Submitted via: audiograbber 1.83.01
#
DISCID=1911f813
DTITLE=JOHN GREEK 88.5 - тис дусйокес стицлес
DYEAR=2006
DGENRE=
TTITLE0=теяфгс - ха 'хека ма 'соум еды
TTITLE1=йомтокафос - ока та 'дыса циа сема
TTITLE2=биссг - дыдейа
TTITLE3=йаябекас - ецы дем еилаи еды
TTITLE4=хеодыяидоу - емтейа паяа
TTITLE5=пафгс - йаи дем лпояы ма жуцы
TTITLE6=йоккиас - еяыта лоу ациатяеуте
TTITLE7=пападопоукоу питса - ецы ма деис
TTITLE8=бакамтгс - се хекы айола
TTITLE9=фыг апостокиа - йи ецы еписгс
TTITLE10=акйаиос - ломаниа лоу
TTITLE11=йаяяас - ауцоустос
TTITLE12=беяяа - то йатаккгко пяосыпо
TTITLE13=цомидгс - вхес то бяаду сто омеияо лоу
TTITLE14=памтафгс - еимаи астеио
TTITLE15=диомусиоу стекиос - та пгяес ока
TTITLE16=адаламтидгс - омеияа покутекеиас
TTITLE17=йояоу - ацапг жукайг лоу
TTITLE18=йыстопоукос - лиа йаимоуяциа цмыяилиа
EXTD=
EXTT0=
EXTT1=
EXTT2=
EXTT3=
EXTT4=
EXTT5=
EXTT6=
EXTT7=
EXTT8=
EXTT9=
EXTT10=
EXTT11=
EXTT12=
EXTT13=
EXTT14=
EXTT15=
EXTT16=
EXTT17=
EXTT18=
PLAYORDER=
